<mxfile host="app.diagrams.net" modified="2023-06-21T23:15:03.243Z" agent="Mozilla/5.0 (Windows NT 10.0; Win64; x64) AppleWebKit/537.36 (KHTML, like Gecko) Chrome/114.0.0.0 Safari/537.36" etag="DqRfCCakndghJ6pwBVV1" version="21.3.7" type="google">
  <diagram name="PÃ¡gina-1" id="ZwRMz1mYYV2eggnPeNGR">
    <mxGraphModel grid="1" page="1" gridSize="10" guides="1" tooltips="1" connect="1" arrows="1" fold="1" pageScale="1" pageWidth="827" pageHeight="1169" math="0" shadow="0">
      <root>
        <mxCell id="0" />
        <mxCell id="1" parent="0" />
        <mxCell id="dmJ20hJk-4laYnwwjy2d-12" style="edgeStyle=orthogonalEdgeStyle;rounded=0;orthogonalLoop=1;jettySize=auto;html=1;entryX=0;entryY=0.25;entryDx=0;entryDy=0;entryPerimeter=0;exitX=1;exitY=0.5;exitDx=0;exitDy=0;" edge="1" parent="1" source="dmJ20hJk-4laYnwwjy2d-1" target="dmJ20hJk-4laYnwwjy2d-8">
          <mxGeometry relative="1" as="geometry">
            <Array as="points">
              <mxPoint x="118" y="220" />
              <mxPoint x="180" y="220" />
              <mxPoint x="180" y="286" />
            </Array>
          </mxGeometry>
        </mxCell>
        <mxCell id="dmJ20hJk-4laYnwwjy2d-1" value="" style="shape=image;html=1;verticalAlign=top;verticalLabelPosition=bottom;labelBackgroundColor=#ffffff;imageAspect=0;aspect=fixed;image=https://cdn0.iconfinder.com/data/icons/construction-2-21/512/construction-industry-building-08-128.png" vertex="1" parent="1">
          <mxGeometry x="60" y="194" width="58" height="58" as="geometry" />
        </mxCell>
        <mxCell id="dmJ20hJk-4laYnwwjy2d-11" value="" style="edgeStyle=orthogonalEdgeStyle;rounded=0;orthogonalLoop=1;jettySize=auto;html=1;entryX=0;entryY=0.422;entryDx=0;entryDy=0;entryPerimeter=0;" edge="1" parent="1" source="dmJ20hJk-4laYnwwjy2d-4" target="dmJ20hJk-4laYnwwjy2d-8">
          <mxGeometry relative="1" as="geometry" />
        </mxCell>
        <mxCell id="dmJ20hJk-4laYnwwjy2d-4" value="" style="shape=image;html=1;verticalAlign=top;verticalLabelPosition=bottom;labelBackgroundColor=#ffffff;imageAspect=0;aspect=fixed;image=https://cdn0.iconfinder.com/data/icons/construction-2-21/512/construction-industry-building-08-128.png" vertex="1" parent="1">
          <mxGeometry x="60" y="268" width="58" height="58" as="geometry" />
        </mxCell>
        <mxCell id="dmJ20hJk-4laYnwwjy2d-13" style="edgeStyle=orthogonalEdgeStyle;rounded=0;orthogonalLoop=1;jettySize=auto;html=1;entryX=-0.016;entryY=0.625;entryDx=0;entryDy=0;entryPerimeter=0;" edge="1" parent="1" source="dmJ20hJk-4laYnwwjy2d-6" target="dmJ20hJk-4laYnwwjy2d-8">
          <mxGeometry relative="1" as="geometry">
            <Array as="points">
              <mxPoint x="180" y="369" />
              <mxPoint x="180" y="310" />
            </Array>
          </mxGeometry>
        </mxCell>
        <mxCell id="dmJ20hJk-4laYnwwjy2d-6" value="" style="shape=image;html=1;verticalAlign=top;verticalLabelPosition=bottom;labelBackgroundColor=#ffffff;imageAspect=0;aspect=fixed;image=https://cdn0.iconfinder.com/data/icons/construction-2-21/512/construction-industry-building-08-128.png" vertex="1" parent="1">
          <mxGeometry x="60" y="340" width="58" height="58" as="geometry" />
        </mxCell>
        <mxCell id="dmJ20hJk-4laYnwwjy2d-17" style="edgeStyle=orthogonalEdgeStyle;rounded=0;orthogonalLoop=1;jettySize=auto;html=1;" edge="1" parent="1" source="dmJ20hJk-4laYnwwjy2d-8" target="dmJ20hJk-4laYnwwjy2d-16">
          <mxGeometry relative="1" as="geometry" />
        </mxCell>
        <mxCell id="dmJ20hJk-4laYnwwjy2d-8" value="" style="image;aspect=fixed;html=1;points=[];align=center;fontSize=12;image=img/lib/azure2/iot/IoT_Hub.svg;" vertex="1" parent="1">
          <mxGeometry x="253" y="270" width="64" height="64" as="geometry" />
        </mxCell>
        <mxCell id="dmJ20hJk-4laYnwwjy2d-10" value="IoT Hub" style="text;html=1;strokeColor=none;fillColor=none;align=center;verticalAlign=middle;whiteSpace=wrap;rounded=0;" vertex="1" parent="1">
          <mxGeometry x="210" y="238" width="60" height="30" as="geometry" />
        </mxCell>
        <mxCell id="dmJ20hJk-4laYnwwjy2d-22" style="edgeStyle=orthogonalEdgeStyle;rounded=0;orthogonalLoop=1;jettySize=auto;html=1;" edge="1" parent="1" source="dmJ20hJk-4laYnwwjy2d-16" target="dmJ20hJk-4laYnwwjy2d-20">
          <mxGeometry relative="1" as="geometry" />
        </mxCell>
        <mxCell id="dmJ20hJk-4laYnwwjy2d-16" value="" style="image;aspect=fixed;html=1;points=[];align=center;fontSize=12;image=img/lib/azure2/databases/SQL_Database.svg;" vertex="1" parent="1">
          <mxGeometry x="393" y="275" width="40.5" height="54" as="geometry" />
        </mxCell>
        <mxCell id="dmJ20hJk-4laYnwwjy2d-18" value="" style="shape=curlyBracket;whiteSpace=wrap;html=1;rounded=1;flipH=1;labelPosition=right;verticalLabelPosition=middle;align=left;verticalAlign=middle;rotation=-90;" vertex="1" parent="1">
          <mxGeometry x="425.5" y="-232.5" width="20" height="785" as="geometry" />
        </mxCell>
        <mxCell id="dmJ20hJk-4laYnwwjy2d-19" value="Pipes and Filter" style="text;html=1;strokeColor=none;fillColor=none;align=center;verticalAlign=middle;whiteSpace=wrap;rounded=0;" vertex="1" parent="1">
          <mxGeometry x="380.5" y="120" width="110" height="30" as="geometry" />
        </mxCell>
        <mxCell id="dmJ20hJk-4laYnwwjy2d-24" style="edgeStyle=orthogonalEdgeStyle;rounded=0;orthogonalLoop=1;jettySize=auto;html=1;" edge="1" parent="1" source="dmJ20hJk-4laYnwwjy2d-20" target="dmJ20hJk-4laYnwwjy2d-23">
          <mxGeometry relative="1" as="geometry" />
        </mxCell>
        <mxCell id="dmJ20hJk-4laYnwwjy2d-20" value="" style="image;aspect=fixed;html=1;points=[];align=center;fontSize=12;image=img/lib/azure2/databases/Data_Factory.svg;" vertex="1" parent="1">
          <mxGeometry x="504" y="274" width="56" height="56" as="geometry" />
        </mxCell>
        <mxCell id="dmJ20hJk-4laYnwwjy2d-21" value="ETL" style="text;html=1;strokeColor=none;fillColor=none;align=center;verticalAlign=middle;whiteSpace=wrap;rounded=0;" vertex="1" parent="1">
          <mxGeometry x="502" y="238" width="60" height="30" as="geometry" />
        </mxCell>
        <mxCell id="dmJ20hJk-4laYnwwjy2d-23" value="" style="image;aspect=fixed;html=1;points=[];align=center;fontSize=12;image=img/lib/azure2/databases/Cache_Redis.svg;" vertex="1" parent="1">
          <mxGeometry x="620" y="276" width="64" height="52" as="geometry" />
        </mxCell>
        <mxCell id="dmJ20hJk-4laYnwwjy2d-25" value="Sql" style="text;html=1;strokeColor=none;fillColor=none;align=center;verticalAlign=middle;whiteSpace=wrap;rounded=0;" vertex="1" parent="1">
          <mxGeometry x="384" y="238" width="60" height="30" as="geometry" />
        </mxCell>
        <mxCell id="dmJ20hJk-4laYnwwjy2d-26" value="Base de datos" style="text;html=1;strokeColor=none;fillColor=none;align=center;verticalAlign=middle;whiteSpace=wrap;rounded=0;" vertex="1" parent="1">
          <mxGeometry x="383.25" y="340" width="60" height="30" as="geometry" />
        </mxCell>
        <mxCell id="dmJ20hJk-4laYnwwjy2d-27" value="Data FActory" style="text;html=1;strokeColor=none;fillColor=none;align=center;verticalAlign=middle;whiteSpace=wrap;rounded=0;" vertex="1" parent="1">
          <mxGeometry x="500" y="340" width="60" height="30" as="geometry" />
        </mxCell>
        <mxCell id="dmJ20hJk-4laYnwwjy2d-28" value="Cubos Dimensionales" style="text;html=1;strokeColor=none;fillColor=none;align=center;verticalAlign=middle;whiteSpace=wrap;rounded=0;" vertex="1" parent="1">
          <mxGeometry x="624" y="238" width="60" height="30" as="geometry" />
        </mxCell>
        <mxCell id="dmJ20hJk-4laYnwwjy2d-29" value="Datamart" style="text;html=1;strokeColor=none;fillColor=none;align=center;verticalAlign=middle;whiteSpace=wrap;rounded=0;" vertex="1" parent="1">
          <mxGeometry x="620" y="340" width="60" height="30" as="geometry" />
        </mxCell>
        <mxCell id="dmJ20hJk-4laYnwwjy2d-31" style="edgeStyle=orthogonalEdgeStyle;rounded=0;orthogonalLoop=1;jettySize=auto;html=1;entryX=0.984;entryY=0.346;entryDx=0;entryDy=0;entryPerimeter=0;" edge="1" parent="1" source="dmJ20hJk-4laYnwwjy2d-30" target="dmJ20hJk-4laYnwwjy2d-23">
          <mxGeometry relative="1" as="geometry">
            <Array as="points">
              <mxPoint x="730" y="230" />
              <mxPoint x="730" y="294" />
            </Array>
          </mxGeometry>
        </mxCell>
        <mxCell id="dmJ20hJk-4laYnwwjy2d-30" value="" style="verticalLabelPosition=bottom;sketch=0;aspect=fixed;html=1;verticalAlign=top;strokeColor=none;align=center;outlineConnect=0;shape=mxgraph.citrix.reporting;" vertex="1" parent="1">
          <mxGeometry x="780" y="198" width="61.5" height="69" as="geometry" />
        </mxCell>
        <mxCell id="dmJ20hJk-4laYnwwjy2d-36" style="edgeStyle=orthogonalEdgeStyle;rounded=0;orthogonalLoop=1;jettySize=auto;html=1;entryX=0.938;entryY=0.654;entryDx=0;entryDy=0;entryPerimeter=0;" edge="1" parent="1" source="dmJ20hJk-4laYnwwjy2d-33" target="dmJ20hJk-4laYnwwjy2d-23">
          <mxGeometry relative="1" as="geometry" />
        </mxCell>
        <mxCell id="dmJ20hJk-4laYnwwjy2d-33" value="" style="verticalLabelPosition=bottom;sketch=0;aspect=fixed;html=1;verticalAlign=top;strokeColor=none;align=center;outlineConnect=0;shape=mxgraph.citrix.reporting;" vertex="1" parent="1">
          <mxGeometry x="780" y="271" width="61.5" height="69" as="geometry" />
        </mxCell>
        <mxCell id="dmJ20hJk-4laYnwwjy2d-37" style="edgeStyle=orthogonalEdgeStyle;rounded=0;orthogonalLoop=1;jettySize=auto;html=1;entryX=1.094;entryY=1.058;entryDx=0;entryDy=0;entryPerimeter=0;" edge="1" parent="1" source="dmJ20hJk-4laYnwwjy2d-34" target="dmJ20hJk-4laYnwwjy2d-23">
          <mxGeometry relative="1" as="geometry">
            <mxPoint x="690" y="330" as="targetPoint" />
            <Array as="points">
              <mxPoint x="730" y="380" />
              <mxPoint x="730" y="327" />
              <mxPoint x="690" y="327" />
            </Array>
          </mxGeometry>
        </mxCell>
        <mxCell id="dmJ20hJk-4laYnwwjy2d-34" value="" style="verticalLabelPosition=bottom;sketch=0;aspect=fixed;html=1;verticalAlign=top;strokeColor=none;align=center;outlineConnect=0;shape=mxgraph.citrix.reporting;" vertex="1" parent="1">
          <mxGeometry x="780" y="350" width="61.5" height="69" as="geometry" />
        </mxCell>
        <mxCell id="dmJ20hJk-4laYnwwjy2d-39" value="Enunciado" style="rounded=1;whiteSpace=wrap;html=1;" vertex="1" parent="1">
          <mxGeometry x="30.5" y="440" width="409.5" height="30" as="geometry" />
        </mxCell>
        <mxCell id="dmJ20hJk-4laYnwwjy2d-40" value="Requerimiento 1" style="rounded=1;whiteSpace=wrap;html=1;" vertex="1" parent="1">
          <mxGeometry x="450" y="440" width="409.5" height="30" as="geometry" />
        </mxCell>
      </root>
    </mxGraphModel>
  </diagram>
</mxfile>
